# xmcd CD database file
#
# Track frame offsets:
#	150
#	20797
#	43006
#	64619
#	85588
#	110057
#	129881
#	149723
#	170138
#	191461
#	211338
#	244921
#	266589
#	291829
#	307758
#	327537
#
# Disc length: 4664 seconds
#
# Revision: 0
# Processed by: cddbd v1.5.2PL0 Copyright (c) Steve Scherf et al.
# Submitted via: NeoAudio 9.9.9
#
DISCID=f2123610
DTITLE=Various Artist - All Time Merenque Party
DYEAR=2005
DGENRE=Merengue
TTITLE0=Los Melodicos - Papachongo
TTITLE1=las Chicas del can - La cubana
TTITLE2=Eddie Herrera - Carolina
TTITLE3=Eddie Herrera - Bailadora
TTITLE4=Fernando Villalona - musica latina
TTITLE5=Natusha - Tu la tienes que pagar
TTITLE6=Los Melocicos - Zumbalo
TTITLE7=The New-York Band - Dancing Mood
TTITLE8=Los Melocicos - Que rico
TTITLE9=Las Chicas del can - El Negro no puede dormir
TTITLE10=Banda Banda - Fiesta
TTITLE11=Los Cantantes - El venao
TTITLE12=Francheska - Menealo
TTITLE13=Francheska - Dulce material
TTITLE14=July Mateo - Oye
TTITLE15=Eddy Gustave - Bailar merenque
EXTD=YEAR: 2005
EXTT0=
EXTT1=
EXTT2=
EXTT3=
EXTT4=
EXTT5=
EXTT6=
EXTT7=
EXTT8=
EXTT9=
EXTT10=
EXTT11=
EXTT12=
EXTT13=
EXTT14=
EXTT15=
PLAYORDER=
